<?xml version="1.0" encoding="UTF-8"?>
<svg width="173px" height="42px" viewBox="0 0 173 42" version="1.1" xmlns="http://www.w3.org/2000/svg" xmlns:xlink="http://www.w3.org/1999/xlink">
    <!-- Generator: Sketch 60 (88103) - https://sketch.com -->
    <title>Icons &amp; Symbols / Logo / Omnicell Logo</title>
    <desc>Created with Sketch.</desc>
    <defs>
        <polygon id="path-1" points="0 0 42.5820786 0 42.5820786 42 0 42"></polygon>
    </defs>
    <g id="Icons-&amp;-Symbols-/-Logo-/-Omnicell-Logo" stroke="none" stroke-width="1" fill="none" fill-rule="evenodd">
        <g id="Group-24">
            <g id="Group-3">
                <mask id="mask-2" fill="white">
                    <use xlink:href="#path-1"></use>
                </mask>
                <g id="Clip-2"></g>
                <path d="M35.0937,14.4988 C34.9247,14.9188 34.7167,15.3048 34.4707,15.6538 C34.4447,15.5878 34.4167,15.5208 34.3887,15.4558 C33.6637,13.7478 32.6427,12.2418 31.3517,10.9768 C30.5697,10.2098 29.6987,9.5408 28.7527,8.9768 C28.6147,8.8928 28.4397,8.8908 28.2997,8.9738 C28.0587,9.1188 27.8417,9.2908 27.6447,9.4948 C27.3297,9.8188 27.0897,10.2027986 26.9097,10.6668 C26.8027,10.9438 26.7267,11.2408 26.6817,11.5568 C26.6557,11.7338 26.7417,11.9078 26.8967,11.9988 C27.6157,12.4248 28.2737,12.9288 28.8677,13.5098 C29.8277,14.4508 30.5787,15.5608 31.1217,16.8408 C32.2087,19.3478 32.2057,22.6528 31.1217,25.1588 C30.5787,26.4378 29.8277,27.5488 28.8677,28.4888 C27.9077,29.4298 26.7827,30.1658 25.4937,30.6998 C22.9717,31.7668 19.6107,31.7648 17.0887,30.6998 C15.7987,30.1658 14.6747,29.4298 13.7147,28.4888 C12.7557,27.5488 12.0037,26.4378 11.4607,25.1588 C10.3747,22.6568 10.3757,19.3468 11.4607,16.8408 C12.0037,15.5608 12.7557,14.4508 13.7147,13.5098 C14.6747,12.5698 15.7987,11.8328 17.0887,11.2998 C18.3947,10.7458 19.9437,10.4818 21.4607,10.5008 C21.1547,12.2678 21.3167,14.1958 21.9497,15.7908 C22.3877,16.9068 23.0177,17.8938 23.8227,18.7238 C24.6247,19.5518 25.5767,20.2068 26.6537,20.6708 C27.6037,21.0818 28.6267,21.3158 29.6997,21.3698 C29.9517,21.3818 30.1637,21.1788 30.1617,20.9268 C30.1567,19.9438 29.9937,18.9458 29.6917,18.0648 C29.6387,17.9098 29.5017,17.7968 29.3397,17.7738 C28.8907,17.7078 28.4637,17.5878 28.0607,17.4138 C27.4117,17.1338 26.8487,16.7478 26.3707,16.2538 C25.8917,15.7608 25.5207,15.1758 25.2547,14.4988 C24.7237,13.1768 24.7277,11.3568 25.2547,10.0258 C25.5207,9.3418 25.8917,8.7528 26.3707,8.2598 C26.8487,7.7668 27.4117,7.3838 28.0607,7.1108 C29.3167,6.5688 31.0327,6.5648 32.3007,7.1108 C32.9477,7.3838 33.5077,7.7668 33.9787,8.2598 C34.4497,8.7528 34.8217,9.3418 35.0937,10.0258 C35.6367,11.3518 35.6397,13.1718 35.0937,14.4988 M36.4447,6.0208 C32.4397,2.1118 27.0607,-0.0322 21.2917,-0.000553104737 C18.2667,-0.000553104737 15.4647,0.5338 12.8857,1.6008 C10.3067,2.6668 8.0577,4.1408 6.1387,6.0208 C4.2187,7.9028 2.7157,10.1218 1.6307,12.6818 C-0.5383,17.7028 -0.5493,24.2748 1.6307,29.3178 C2.7157,31.8768 4.2187,34.0978 6.1387,35.9778 C8.0577,37.8598 10.3067,39.3318 12.8857,40.3988 C17.9417,42.5278 24.6127,42.5398 29.6967,40.3988 C32.2757,39.3318 34.5257,37.8598 36.4447,35.9778 C38.3647,34.0978 39.8657,31.8768 40.9527,29.3178 C43.1187,24.2938 43.1317,17.7328 40.9527,12.6818 C39.8657,10.1218 38.3647,7.9028 36.4447,6.0208" id="Fill-1" fill="#46B555" mask="url(#mask-2)"></path>
            </g>
            <path d="M68.5614,23.9778 C68.2024,24.8698 67.7124,25.6398 67.0934,26.2898 C66.4724,26.9388 65.7364,27.4478 64.8834,27.8158 C64.0314,28.1838 63.1004,28.3678 62.0924,28.3678 C61.0844,28.3678 60.1554,28.1838 59.3024,27.8158 C58.4494,27.4478 57.7074,26.9388 57.0784,26.2898 C56.4484,25.6398 55.9584,24.8698 55.6104,23.9778 C55.2614,23.0858 55.0864,22.1078 55.0864,21.0418 C55.0864,19.9758 55.2614,18.9918 55.6104,18.0908 C55.9584,17.1898 56.4484,16.4148 57.0784,15.7658 C57.7074,15.1158 58.4494,14.6128 59.3024,14.2538 C60.1554,13.8948 61.0844,13.7158 62.0924,13.7158 C63.1004,13.7158 64.0314,13.8948 64.8834,14.2538 C65.7364,14.6128 66.4724,15.1158 67.0934,15.7658 C67.7124,16.4148 68.2024,17.1898 68.5614,18.0908 C68.9194,18.9918 69.0984,19.9758 69.0984,21.0418 C69.0984,22.1078 68.9194,23.0858 68.5614,23.9778 M69.6654,13.5558 C68.7074,12.6168 67.5824,11.8798 66.2934,11.3468 C65.0044,10.8138 63.6044,10.5468 62.0924,10.5468 C60.5814,10.5468 59.1804,10.8138 57.8924,11.3468 C56.6034,11.8798 55.4794,12.6168 54.5204,13.5558 C53.5604,14.4968 52.8094,15.6048 52.2674,16.8848 C51.7244,18.1638 51.4534,19.5498 51.4534,21.0418 C51.4534,22.5348 51.7244,23.9188 52.2674,25.1988 C52.8094,26.4778 53.5604,27.5878 54.5204,28.5278 C55.4794,29.4678 56.6034,30.2048 57.8924,30.7368 C59.1804,31.2698 60.5814,31.5368 62.0924,31.5368 C63.6044,31.5368 65.0044,31.2698 66.2934,30.7368 C67.5824,30.2048 68.7074,29.4678 69.6654,28.5278 C70.6244,27.5878 71.3754,26.4778 71.9184,25.1988 C72.4604,23.9188 72.7334,22.5348 72.7334,21.0418 C72.7334,19.5498 72.4604,18.1638 71.9184,16.8848 C71.3754,15.6048 70.6244,14.4968 69.6654,13.5558" id="Fill-4" fill="#46B555"></path>
            <path d="M97.5009,17.408 C96.9389,16.943 96.2699,16.594 95.4949,16.362 C94.7199,16.129 93.8869,16.012 92.9949,16.012 C91.8129,16.012 90.7559,16.236 89.8259,16.681 C88.8969,17.127 88.1489,17.786 87.5879,18.658 C87.0249,17.786 86.2699,17.127 85.3199,16.681 C84.3699,16.236 83.2949,16.012 82.0929,16.012 C81.1819,16.012 80.3389,16.134 79.5639,16.376 C78.7889,16.618 78.1149,16.972 77.5439,17.437 C76.9719,17.902 76.5219,18.484 76.1919,19.181 C75.8619,19.879 75.6969,20.693 75.6969,21.623 L75.6969,31.013 L79.0119,31.013 L79.0119,22.757 C79.0119,21.42 79.3209,20.46 79.9419,19.879 C80.5629,19.297 81.3759,19.007 82.3839,19.007 C83.3719,19.007 84.2009,19.326 84.8689,19.966 C85.5379,20.606 85.8719,21.642 85.8719,23.076 L85.8719,31.013 L89.1869,31.013 L89.1869,23.076 C89.1869,21.642 89.5209,20.606 90.1889,19.966 C90.8579,19.326 91.6869,19.007 92.6749,19.007 C93.7019,19.007 94.5159,19.293 95.1169,19.865 C95.7179,20.436 96.0189,21.39 96.0189,22.728 L96.0189,31.013 L99.3319,31.013 L99.3319,21.594 C99.3319,20.664 99.1669,19.85 98.8379,19.152 C98.5079,18.454 98.0629,17.873 97.5009,17.408" id="Fill-6" fill="#46B555"></path>
            <path d="M114.8993,17.6551 C114.2693,17.1221 113.5183,16.7151 112.6463,16.4341 C111.7743,16.1531 110.8243,16.0121 109.7963,16.0121 C108.7693,16.0121 107.8253,16.1531 106.9623,16.4341 C106.1003,16.7151 105.3533,17.1221 104.7243,17.6551 C104.0933,18.1881 103.6003,18.8371 103.2423,19.6031 C102.8823,20.3681 102.7043,21.2361 102.7043,22.2041 L102.7043,31.0131 L106.0173,31.0131 L106.0173,23.0471 C106.0173,21.7301 106.3333,20.7271 106.9623,20.0381 C107.5923,19.3511 108.5373,19.0071 109.7963,19.0071 C111.0373,19.0071 111.9773,19.3511 112.6173,20.0381 C113.2563,20.7271 113.5763,21.7301 113.5763,23.0471 L113.5763,31.0131 L116.8903,31.0131 L116.8903,22.2041 C116.8903,21.2361 116.7153,20.3681 116.3673,19.6031 C116.0183,18.8371 115.5293,18.1881 114.8993,17.6551" id="Fill-8" fill="#46B555"></path>
            <path d="M121.996,16.4192 C121.434,16.4192 120.998,16.5412 120.688,16.7832 C120.378,17.0252 120.224,17.4182 120.224,17.9602 L120.224,31.0132 L123.537,31.0132 L123.537,16.7392 C123.44,16.7002 123.247,16.6372 122.956,16.5502 C122.665,16.4632 122.346,16.4192 121.996,16.4192" id="Fill-10" fill="#46B555"></path>
            <path d="M121.8798,9.8724 C121.2198,9.8724 120.7268,10.0624 120.3788,10.4214 C119.9968,10.8174 119.8678,11.4014 119.8678,11.8844 C119.8678,12.3674 119.9968,12.9514 120.3788,13.3474 C120.7268,13.7064 121.2198,13.8964 121.8798,13.8964 C122.5398,13.8964 123.0338,13.7064 123.3818,13.3474 C123.7638,12.9514 123.8928,12.3674 123.8928,11.8844 C123.8928,11.4014 123.7638,10.8174 123.3818,10.4214 C123.0338,10.0624 122.5398,9.8724 121.8798,9.8724" id="Fill-12" fill="#46B555"></path>
            <path d="M137.1572,28.0911 C136.5652,28.3531 135.7852,28.4841 134.8162,28.4841 C134.1372,28.4841 133.5092,28.3921 132.9272,28.2071 C132.3452,28.0241 131.8322,27.7371 131.3862,27.3501 C130.9402,26.9621 130.5922,26.4681 130.3402,25.8671 C130.0882,25.2671 129.9622,24.5401 129.9622,23.6871 C129.9622,22.8731 130.0832,22.1711 130.3252,21.5791 C130.5672,20.9881 130.8962,20.4941 131.3132,20.0971 C131.7302,19.7001 132.2242,19.4041 132.7962,19.2101 C133.3672,19.0161 133.9832,18.9201 134.6422,18.9201 C135.6112,18.9201 136.4252,19.0701 137.0842,19.3701 C137.7432,19.6711 138.2472,19.9861 138.5952,20.3151 C138.8282,20.1401 139.0752,19.8891 139.3372,19.5591 C139.5982,19.2301 139.7292,18.8711 139.7292,18.4841 C139.7292,18.1931 139.6372,17.9021 139.4532,17.6111 C139.2692,17.3201 138.9692,17.0591 138.5532,16.8261 C138.1352,16.5941 137.5932,16.4001 136.9242,16.2451 C136.2562,16.0901 135.4462,16.0121 134.4972,16.0121 C133.3732,16.0121 132.3212,16.1821 131.3432,16.5211 C130.3642,16.8611 129.5152,17.3601 128.7992,18.0181 C128.0822,18.6771 127.5192,19.4911 127.1132,20.4601 C126.7062,21.4291 126.5032,22.5341 126.5032,23.7741 C126.5032,25.0151 126.7102,26.1101 127.1282,27.0601 C127.5442,28.0091 128.1112,28.8091 128.8282,29.4571 C129.5452,30.1081 130.3792,30.5961 131.3282,30.9261 C132.2772,31.2551 133.2952,31.4201 134.3812,31.4201 C135.0782,31.4201 135.7032,31.3711 136.2562,31.2751 C136.8072,31.1771 137.3032,31.0571 137.7382,30.9111 C138.1742,30.7661 138.5612,30.6111 138.9012,30.4461 C139.2402,30.2811 139.5262,30.1221 139.7592,29.9671 L138.3632,27.4951 C138.1492,27.6311 137.7482,27.8301 137.1572,28.0911" id="Fill-14" fill="#46B555"></path>
            <path d="M151.8046,21.6233 C151.6876,21.8943 151.4456,22.1373 151.0766,22.3503 C150.7086,22.5633 150.1956,22.7373 149.5366,22.8733 C148.8776,23.0093 148.0146,23.0763 146.9496,23.0763 L145.7286,23.0763 C145.3216,23.0763 144.8946,23.0673 144.4496,23.0473 C144.4686,22.4853 144.5796,21.9333 144.7836,21.3903 C144.9876,20.8483 145.2736,20.3683 145.6416,19.9513 C146.0086,19.5353 146.4646,19.2003 147.0076,18.9483 C147.5496,18.6963 148.1796,18.5703 148.8976,18.5703 C149.7696,18.5703 150.5006,18.7553 151.0916,19.1233 C151.6836,19.4913 151.9786,20.0433 151.9786,20.7803 C151.9786,21.0713 151.9206,21.3523 151.8046,21.6233 M153.5926,17.4513 C153.0586,17.0153 152.4056,16.6663 151.6296,16.4043 C150.8546,16.1433 149.9626,16.0123 148.9546,16.0123 C147.8116,16.0123 146.7606,16.2013 145.8006,16.5793 C144.8416,16.9573 144.0086,17.4903 143.3006,18.1783 C142.5936,18.8663 142.0406,19.6903 141.6436,20.6493 C141.2456,21.6083 141.0476,22.6703 141.0476,23.8323 C141.0476,25.0543 141.2516,26.1343 141.6586,27.0743 C142.0656,28.0143 142.6226,28.8093 143.3296,29.4573 C144.0366,30.1073 144.8616,30.5963 145.8006,30.9263 C146.7416,31.2553 147.7536,31.4203 148.8386,31.4203 C149.6146,31.4203 150.3256,31.3613 150.9756,31.2453 C151.6246,31.1293 152.1976,30.9933 152.6916,30.8383 C153.1856,30.6843 153.5966,30.5193 153.9266,30.3443 C154.2556,30.1703 154.4976,30.0343 154.6536,29.9373 L153.4326,27.6113 C153.3166,27.6703 153.1366,27.7573 152.8946,27.8733 C152.6526,27.9893 152.3616,28.1053 152.0226,28.2223 C151.6836,28.3383 151.3006,28.4353 150.8736,28.5133 C150.4476,28.5903 149.9826,28.6293 149.4786,28.6293 C147.9866,28.6293 146.8376,28.3233 146.0336,27.7133 C145.2296,27.1023 144.7496,26.3043 144.5946,25.3143 C144.9826,25.3353 145.3456,25.3493 145.6856,25.3583 C146.0236,25.3683 146.3876,25.3733 146.7756,25.3733 C148.4416,25.3733 149.8176,25.2623 150.9036,25.0393 C151.9886,24.8163 152.8516,24.5063 153.4906,24.1083 C154.1296,23.7123 154.5756,23.2363 154.8276,22.6843 C155.0786,22.1323 155.2046,21.5173 155.2046,20.8383 C155.2046,20.1803 155.0706,19.5593 154.7986,18.9773 C154.5276,18.3963 154.1246,17.8873 153.5926,17.4513" id="Fill-16" fill="#46B555"></path>
            <path d="M159.8505,9.5877 C159.2885,9.5877 158.8515,9.7137 158.5415,9.9657 C158.2325,10.2177 158.0775,10.6057 158.0775,11.1287 L158.0775,31.0127 L161.3915,31.0127 L161.3915,9.9077 C161.2935,9.8687 161.1005,9.8057 160.8095,9.7187 C160.5185,9.6317 160.1995,9.5877 159.8505,9.5877" id="Fill-18" fill="#46B555"></path>
            <path d="M167.1845,9.7186 C166.8945,9.6316 166.5745,9.5876 166.2255,9.5876 C165.6635,9.5876 165.2275,9.7136 164.9175,9.9656 C164.6075,10.2186 164.4525,10.6056 164.4525,11.1286 L164.4525,31.0126 L167.7665,31.0126 L167.7665,9.9076 C167.6685,9.8686 167.4755,9.8056 167.1845,9.7186" id="Fill-20" fill="#46B555"></path>
            <path d="M172.2323,11.9808 L172.0633,10.3688 L171.4613,11.9808 L171.2333,11.9808 L170.6273,10.3628 L170.4623,11.9808 L170.2293,11.9808 L170.4273,9.9368 L170.7253,9.9368 L171.3563,11.6298 L171.9753,9.9368 L172.2613,9.9368 L172.4713,11.9808 L172.2323,11.9808 Z M168.5063,9.9368 L170.0603,9.9368 L170.0433,10.1708 L169.4063,10.1708 L169.4063,11.9808 L169.1373,11.9808 L169.1373,10.1708 L168.4833,10.1708 L168.5063,9.9368 Z" id="Fill-22" fill="#46B555"></path>
        </g>
    </g>
</svg>